<svg width="88" height="35" viewBox="0 0 88 35" fill="none" xmlns="http://www.w3.org/2000/svg">
<g clip-path="url(#clip0_185_14065)">
<path d="M62.2402 25.8875V3.53027H66.7312V25.8875H62.2402Z" fill="black"/>
<path d="M9.89924 32.5286H0.271301L0.271301 10.1714H9.51208C14.0032 10.1714 16.62 12.6206 16.62 16.4517C16.62 18.9316 14.9394 20.5342 13.7761 21.0678C15.1646 21.6955 16.942 23.1082 16.942 26.0927C16.942 30.2676 14.0032 32.5286 9.89924 32.5286ZM9.15661 14.0658H4.76234V19.2155H9.15661C11.0625 19.2155 12.129 18.1791 12.129 16.6398C12.129 15.1022 11.0625 14.0658 9.15661 14.0658ZM9.44697 23.1407H4.76234V28.6359H9.44697C11.4831 28.6359 12.4509 27.3806 12.4509 25.8721C12.4509 24.3653 11.4813 23.1407 9.44697 23.1407Z" fill="black"/>
<path d="M30.6402 23.3596V32.5286H26.1808V23.3596L19.2665 10.1714H24.1447L28.4422 19.183L32.6746 10.1714H37.5528L30.6402 23.3596Z" fill="black"/>
<path d="M50.2852 32.5286H40.6572V10.1714H49.898C54.3891 10.1714 57.0059 12.6206 57.0059 16.4517C57.0059 18.9316 55.3253 20.5342 54.162 21.0678C55.5505 21.6955 57.328 23.1082 57.328 26.0927C57.328 30.2676 54.3891 32.5286 50.2852 32.5286ZM49.5425 14.0658H45.1482V19.2155H49.5425C51.4484 19.2155 52.5148 18.1791 52.5148 16.6398C52.5148 15.1022 51.4484 14.0658 49.5425 14.0658ZM49.8329 23.1407H45.1482V28.6359H49.8329C51.869 28.6359 52.8368 27.3806 52.8368 25.8721C52.8368 24.3653 51.869 23.1407 49.8329 23.1407Z" fill="black"/>
<path d="M81.2058 14.0658V32.5303H76.7147V14.0658H70.705V10.1714H87.2156V14.0658H81.2058Z" fill="black"/>
</g>
<defs>
<clipPath id="clip0_185_14065">
<rect width="86.9447" height="34" fill="white" transform="translate(0.271301 0.530273)"/>
</clipPath>
</defs>
</svg>
