<svg width="20" height="16" viewBox="0 0 20 16" fill="none" xmlns="http://www.w3.org/2000/svg">
<path fill-rule="evenodd" clip-rule="evenodd" d="M0.234468 0.356566C0.0881487 0.530471 0 0.754941 0 1V13C0 14.6569 1.34315 16 3 16H17C18.6569 16 20 14.6569 20 13V1.01056C20.0004 0.973606 19.9987 0.936539 19.995 0.899543C19.9681 0.630017 19.8342 0.392006 19.6364 0.228617C19.4645 0.0865899 19.2442 0.000948707 19.004 7.83375e-06C19.0027 2.65064e-06 19.0014 0 19 0C19 0 19 0 19 0H1.00003H1C0.734354 0 0.4929 0.103582 0.313825 0.27256C0.285857 0.29893 0.25935 0.326969 0.234468 0.356566ZM2 3.41418V13C2 13.5523 2.44772 14 3 14H17C17.5523 14 18 13.5523 18 13V3.41424L10.7071 10.7071C10.3166 11.0976 9.68345 11.0976 9.29292 10.7071L2 3.41418Z" fill="#8D6AE2"/>
</svg>
