<svg width="46" height="50" viewBox="0 0 46 50" fill="none" xmlns="http://www.w3.org/2000/svg">
<path fill-rule="evenodd" clip-rule="evenodd" d="M15.5742 5.74266C17.7063 -1.72802 28.2937 -1.72802 30.4257 5.74266C31.1066 8.12841 33.5577 9.54353 35.9642 8.9403C43.5 7.05136 48.7937 16.2203 43.3899 21.8021C41.6642 23.5846 41.6642 26.4148 43.3899 28.1973C48.7937 33.7791 43.5 42.948 35.9642 41.0591C33.5577 40.4559 31.1066 41.871 30.4257 44.2567C28.2937 51.7274 17.7063 51.7274 15.5742 44.2567C14.8934 41.871 12.4423 40.4559 10.0358 41.0591C2.49995 42.948 -2.79375 33.7791 2.61002 28.1973C4.33572 26.4148 4.33572 23.5846 2.61003 21.8021C-2.79375 16.2203 2.49995 7.05136 10.0358 8.9403C12.4423 9.54353 14.8934 8.12841 15.5742 5.74266ZM29.64 18.3597C30.2502 18.9699 30.2502 19.9592 29.64 20.5694L17.8549 32.3545C17.2447 32.9647 16.2554 32.9647 15.6452 32.3545C15.035 31.7444 15.035 30.755 15.6452 30.1448L27.4303 18.3597C28.0405 17.7495 29.0298 17.7495 29.64 18.3597ZM16.75 20.8331C15.5995 20.8331 14.6667 19.9004 14.6667 18.7498C14.6667 17.5992 15.5995 16.6664 16.75 16.6664C17.9006 16.6664 18.8334 17.5992 18.8334 18.7498C18.8334 19.9004 17.9006 20.8331 16.75 20.8331ZM29.25 33.3331C28.0995 33.3331 27.1667 32.4004 27.1667 31.2498C27.1667 30.0992 28.0995 29.1664 29.25 29.1664C30.4006 29.1664 31.3334 30.0992 31.3334 31.2498C31.3334 32.4004 30.4006 33.3331 29.25 33.3331Z" fill="url(#paint0_linear_1564_1039)"/>
<defs>
<linearGradient id="paint0_linear_1564_1039" x1="8.64007" y1="74.2019" x2="74.1778" y2="27.8095" gradientUnits="userSpaceOnUse">
<stop stop-color="#982DEC"/>
<stop offset="0.572917" stop-color="#DC8DF8"/>
<stop offset="0.895833" stop-color="#A9C4F3"/>
</linearGradient>
</defs>
</svg>
