<svg width="164" height="26" viewBox="0 0 164 26" fill="none" xmlns="http://www.w3.org/2000/svg">
<g clip-path="url(#clip0_185_14062)">
<path d="M37.9436 1.0577H41.7442V11.0788L51.8793 1.0577H56.9468L47.8675 9.81298L57.3691 24.5809H52.3015L44.9114 12.6611L41.6386 15.8256V24.6864H37.838L37.9436 1.0577ZM59.4805 1.0577H63.2812V5.17162C63.5979 4.43323 64.3369 3.37838 65.4982 2.32352C66.6595 1.16318 68.032 0.635759 69.6156 0.635759H70.0379C70.249 0.635759 70.5657 0.635759 70.988 0.741244V4.96065C70.7769 4.96065 70.5657 4.85517 70.3546 4.85517H69.7211C67.7152 4.85517 66.2372 5.48808 65.1815 6.7539C64.1258 8.01973 63.5979 9.49652 63.5979 11.1843V24.6864H59.5861L59.4805 1.0577ZM85.6627 10.3404C86.6129 10.2349 87.1407 9.81297 87.4575 9.18006C87.6686 8.86361 87.6686 8.33618 87.6686 7.70327C87.6686 6.33196 87.1407 5.3826 86.1906 4.74968C85.2404 4.11677 83.868 3.80032 82.0732 3.80032C79.9618 3.80032 78.5893 4.32774 77.6391 5.48808C77.1113 6.12099 76.7946 7.07036 76.689 8.2307H72.9939C73.0995 5.27711 74.0497 3.27289 75.8444 2.21804C77.7447 1.0577 79.7506 0.530273 82.1788 0.530273C84.9237 0.530273 87.1407 1.0577 88.9355 2.11255C90.6247 3.1674 91.4692 4.85517 91.4692 7.07036V20.5725C91.4692 20.9944 91.5748 21.3109 91.6804 21.5218C91.8915 21.7328 92.2083 21.9438 92.7361 21.9438H93.3696C93.3696 21.9438 93.7919 21.8383 94.1086 21.8383V24.7919C93.4751 25.0029 93.0528 25.1083 92.7361 25.1083C92.4194 25.1083 91.9971 25.2138 91.4692 25.2138C90.0968 25.2138 89.1466 24.6864 88.5132 23.737C88.1965 23.2096 87.9853 22.4712 87.8798 21.5218C87.0352 22.5767 85.8739 23.5261 84.3958 24.2645C82.9178 25.0029 81.2286 25.4248 79.4339 25.4248C77.2169 25.4248 75.4221 24.7919 74.0497 23.4206C72.6772 22.0493 71.9382 20.467 71.9382 18.4628C71.9382 16.2476 72.5716 14.5598 73.9441 13.3995C75.3165 12.2391 77.1113 11.5007 79.3283 11.1843L85.6627 10.3404ZM77.3224 20.9944C78.167 21.6273 79.1172 21.9438 80.2785 21.9438C81.6509 21.9438 83.0234 21.6273 84.2903 20.9944C86.5073 19.9396 87.563 18.1463 87.563 15.7201V12.5556C87.0352 12.872 86.5073 13.083 85.6627 13.294C84.8181 13.505 84.1847 13.6104 83.4457 13.7159L81.1231 14.2434C79.645 14.4543 78.5893 14.7708 77.8503 15.1927C76.5834 15.9311 76.0555 16.986 76.0555 18.4628C76.0555 19.5176 76.4778 20.3615 77.3224 20.9944ZM96.7479 1.0577H100.549V11.0788L110.684 1.0577H115.751L106.672 9.81298L116.173 24.5809H111.106L103.716 12.6611L100.443 15.8256V24.6864H96.6423L96.7479 1.0577ZM132.326 1.7961C133.91 2.53449 135.071 3.58935 135.916 4.85517C136.655 6.01551 137.182 7.38681 137.499 8.96909C137.71 10.0239 137.816 11.8172 137.816 14.1379L120.713 14.1379C120.819 16.564 121.346 18.4628 122.402 19.9396C123.458 21.4164 125.042 22.1547 127.259 22.1547C129.264 22.1547 130.954 21.5218 132.115 20.1505C132.748 19.3066 133.276 18.4628 133.593 17.4079H137.499C137.394 18.2518 137.077 19.2012 136.443 20.256C135.916 21.3109 135.177 22.1548 134.543 22.8931C133.382 24.0535 131.904 24.8974 130.109 25.2138C129.159 25.4248 128.103 25.5303 126.942 25.5303C123.986 25.5303 121.558 24.4754 119.552 22.3657C117.546 20.256 116.49 17.3024 116.49 13.505C116.49 9.70749 117.546 6.64842 119.552 4.32774C121.558 2.00707 124.303 0.741244 127.575 0.741244C129.159 0.530273 130.743 0.952214 132.326 1.7961ZM133.804 10.9733C133.593 9.28555 133.276 7.91424 132.643 6.85939C131.587 4.96065 129.792 4.01129 127.259 4.01129C125.464 4.01129 123.986 4.6442 122.719 6.01551C121.452 7.28133 120.819 8.96909 120.819 10.9733L133.804 10.9733ZM141.3 1.0577H145.1V4.43323C146.262 3.06192 147.423 2.11255 148.69 1.47964C149.957 0.846729 151.329 0.530273 152.807 0.530273C156.186 0.530273 158.403 1.69061 159.564 4.01129C160.197 5.27711 160.514 7.07036 160.514 9.49652V24.5809H156.502V9.81298C156.502 8.33618 156.291 7.17584 155.869 6.33196C155.13 4.85517 153.863 4.11677 152.068 4.11677C151.118 4.11677 150.379 4.22226 149.746 4.43323C148.69 4.74968 147.74 5.3826 146.895 6.33196C146.262 7.07036 145.84 7.91424 145.628 8.75812C145.417 9.60201 145.312 10.7623 145.312 12.3446V24.6864H141.405L141.3 1.0577ZM18.6237 1.0577C10.3889 1.0577 3.63225 7.70327 3.63225 16.0366V22.4712C3.63225 23.6315 4.58241 24.5809 5.74371 24.5809C6.90502 24.5809 7.85518 23.6315 7.85518 22.4712V16.0366C7.85518 14.8763 8.80534 13.9269 9.96665 13.9269C11.128 13.9269 12.0781 14.8763 12.0781 16.0366V22.4712C12.0781 23.6315 13.0283 24.5809 14.1896 24.5809C15.3509 24.5809 16.301 23.6315 16.301 22.4712V16.0366C16.301 14.8763 17.2512 13.9269 18.4125 13.9269C19.5738 13.9269 20.524 14.8763 20.524 16.0366V22.4712C20.524 23.6315 21.4741 24.5809 22.6354 24.5809C23.7968 24.5809 24.7469 23.6315 24.7469 22.4712V16.0366C24.7469 14.8763 25.6971 13.9269 26.8584 13.9269C28.0197 13.9269 28.9698 14.8763 28.9698 16.0366V22.4712C28.9698 23.6315 29.92 24.5809 31.0813 24.5809C32.2426 24.5809 33.1928 23.6315 33.1928 22.4712V16.0366C33.7206 7.70327 26.964 1.0577 18.6237 1.0577Z" fill="#002A1B"/>
</g>
<defs>
<clipPath id="clip0_185_14062">
<rect width="162.896" height="25" fill="white" transform="translate(0.625061 0.530273)"/>
</clipPath>
</defs>
</svg>
