<svg width="38" height="42" viewBox="0 0 38 42" fill="none" xmlns="http://www.w3.org/2000/svg">
<path fill-rule="evenodd" clip-rule="evenodd" d="M4.5439 2.15591C4.76295 1.99676 4.98947 1.85035 5.22486 1.71565C5.30047 1.88406 5.40743 2.04182 5.54572 2.18011C8.23438 4.86865 10.3448 6.97571 12.2051 8.46466C14.0885 9.97204 15.8523 10.9615 17.8844 11.2833C19.126 11.48 20.3907 11.48 21.6323 11.2833C23.6076 10.9705 25.3291 10.027 27.1536 8.59012C28.9548 7.1716 30.9769 5.17228 33.5222 2.62874C33.6039 2.54713 33.6746 2.45873 33.7345 2.36536C34.5042 2.96495 35.1864 3.67009 35.7606 4.46041C37.75 7.19859 37.75 11.1046 37.75 18.9165V23.0832C37.75 30.8951 37.75 34.8011 35.7606 37.5393C35.1181 38.4236 34.3404 39.2013 33.4561 39.8438C30.7179 41.8332 26.8119 41.8332 19 41.8332C11.1881 41.8332 7.28209 41.8332 4.5439 39.8438C3.65958 39.2013 2.8819 38.4236 2.23941 37.5393C0.25 34.8011 0.25 30.8951 0.25 23.0832V18.9165C0.25 11.1046 0.25 7.19859 2.23941 4.46041C2.8819 3.57609 3.65958 2.79841 4.5439 2.15591ZM10.6667 19.4373C9.80372 19.4373 9.10417 20.1369 9.10417 20.9998C9.10417 21.8628 9.80372 22.5623 10.6667 22.5623H16.9167C17.7796 22.5623 18.4792 21.8628 18.4792 20.9998C18.4792 20.1369 17.7796 19.4373 16.9167 19.4373H10.6667ZM10.6667 27.7707C9.80372 27.7707 9.10417 28.4702 9.10417 29.3332C9.10417 30.1961 9.80372 30.8957 10.6667 30.8957H27.3333C28.1963 30.8957 28.8958 30.1961 28.8958 29.3332C28.8958 28.4702 28.1963 27.7707 27.3333 27.7707H10.6667Z" fill="url(#paint0_linear_1564_3583)"/>
<path d="M19 0.166504C24.6249 0.166504 28.2247 0.166504 30.8216 0.909155C28.4875 3.2371 26.7416 4.93681 25.2201 6.13505C23.6169 7.39764 22.388 7.99969 21.1435 8.1968C20.2258 8.34215 19.2909 8.34215 18.3733 8.1968C17.093 7.99403 15.8295 7.36285 14.1578 6.02488C12.6013 4.77909 10.8104 3.02156 8.40958 0.62416C10.8932 0.166504 14.2134 0.166504 19 0.166504Z" fill="url(#paint1_linear_1564_3583)"/>
<defs>
<linearGradient id="paint0_linear_1564_3583" x1="7.08594" y1="62.2325" x2="61.8232" y2="23.8715" gradientUnits="userSpaceOnUse">
<stop stop-color="#982DEC"/>
<stop offset="0.572917" stop-color="#DC8DF8"/>
<stop offset="0.895833" stop-color="#A9C4F3"/>
</linearGradient>
<linearGradient id="paint1_linear_1564_3583" x1="7.08594" y1="62.2325" x2="61.8232" y2="23.8715" gradientUnits="userSpaceOnUse">
<stop stop-color="#982DEC"/>
<stop offset="0.572917" stop-color="#DC8DF8"/>
<stop offset="0.895833" stop-color="#A9C4F3"/>
</linearGradient>
</defs>
</svg>
