<svg width="38" height="44" viewBox="0 0 38 44" fill="none" xmlns="http://www.w3.org/2000/svg">
<path d="M16.3958 25.0832C16.3958 23.6449 17.5618 22.479 19 22.479C20.4382 22.479 21.6042 23.6449 21.6042 25.0832C21.6042 26.5214 20.4382 27.6873 19 27.6873C17.5618 27.6873 16.3958 26.5214 16.3958 25.0832Z" fill="url(#paint0_linear_1564_1569)"/>
<path fill-rule="evenodd" clip-rule="evenodd" d="M19 0.604004C12.3841 0.604004 7.02083 5.96726 7.02083 12.5832V14.9034C7.02083 15.0426 7.03903 15.1775 7.07318 15.306C4.08131 16.4053 1.7493 18.819 0.759828 21.8642C0.25 23.4333 0.25 25.3722 0.25 29.2498C0.25 33.1275 0.25 35.0663 0.759828 36.6354C1.79022 39.8067 4.27651 42.2929 7.44774 43.3233C9.01682 43.8332 10.9556 43.8332 14.8333 43.8332H23.1667C27.0443 43.8332 28.9832 43.8332 30.5523 43.3233C33.7235 42.2929 36.2098 39.8067 37.2402 36.6354C37.75 35.0663 37.75 33.1275 37.75 29.2498C37.75 25.3722 37.75 23.4333 37.2402 21.8642C36.2507 18.819 33.9187 16.4053 30.9268 15.306C30.961 15.1775 30.9792 15.0426 30.9792 14.9034V12.5832C30.9792 5.96726 25.6159 0.604004 19 0.604004ZM23.1667 14.6665C25.1777 14.6665 26.6672 14.6665 27.8542 14.7376V12.5832C27.8542 7.69315 23.89 3.729 19 3.729C14.11 3.729 10.1458 7.69315 10.1458 12.5832V14.7376C11.3328 14.6665 12.8223 14.6665 14.8333 14.6665H23.1667ZM13.2708 25.0832C13.2708 21.919 15.8359 19.354 19 19.354C22.1641 19.354 24.7292 21.919 24.7292 25.0832C24.7292 27.7056 22.9672 29.9165 20.5625 30.5967V37.5832C20.5625 38.4461 19.8629 39.1457 19 39.1457C18.1371 39.1457 17.4375 38.4461 17.4375 37.5832V30.5967C15.0328 29.9165 13.2708 27.7056 13.2708 25.0832Z" fill="url(#paint1_linear_1564_1569)"/>
<defs>
<linearGradient id="paint0_linear_1564_1569" x1="7.08594" y1="64.9975" x2="63.1336" y2="27.1379" gradientUnits="userSpaceOnUse">
<stop stop-color="#982DEC"/>
<stop offset="0.572917" stop-color="#DC8DF8"/>
<stop offset="0.895833" stop-color="#A9C4F3"/>
</linearGradient>
<linearGradient id="paint1_linear_1564_1569" x1="7.08594" y1="64.9975" x2="63.1336" y2="27.1379" gradientUnits="userSpaceOnUse">
<stop stop-color="#982DEC"/>
<stop offset="0.572917" stop-color="#DC8DF8"/>
<stop offset="0.895833" stop-color="#A9C4F3"/>
</linearGradient>
</defs>
</svg>
