<svg width="20" height="20" viewBox="0 0 20 20" fill="none" xmlns="http://www.w3.org/2000/svg">
<path fill-rule="evenodd" clip-rule="evenodd" d="M1.27242 1.16114C1.85821 0.575355 2.80796 0.575355 3.39374 1.16114L18.9501 16.7175C19.5359 17.3033 19.5359 18.253 18.9501 18.8388C18.3643 19.4246 17.4146 19.4246 16.8288 18.8388L1.27242 3.28246C0.686635 2.69668 0.686635 1.74693 1.27242 1.16114Z" fill="white"/>
<path fill-rule="evenodd" clip-rule="evenodd" d="M18.7283 1.16114C18.1425 0.575355 17.1928 0.575355 16.607 1.16114L1.05067 16.7175C0.464882 17.3033 0.464881 18.253 1.05067 18.8388C1.63645 19.4246 2.5862 19.4246 3.17199 18.8388L18.7283 3.28246C19.3141 2.69668 19.3141 1.74693 18.7283 1.16114Z" fill="white"/>
</svg>
