<svg width="42" height="42" viewBox="0 0 42 42" fill="none" xmlns="http://www.w3.org/2000/svg">
<path d="M35.5719 5.67157C34.2943 5.26885 32.8587 5.07333 31.2 4.97098C29.3041 4.854 27.0001 4.854 24.1735 4.854H17.7932C14.4528 4.85399 11.8342 4.85398 9.74211 5.05289C7.60971 5.25564 5.86366 5.67602 4.32445 6.61925C2.71259 7.607 1.35738 8.96221 0.36963 10.5741C0.334637 10.6312 0.300363 10.6886 0.266793 10.7463C0.427822 7.7397 0.848418 5.74843 1.94699 4.17206C2.52188 3.34713 3.21774 2.62167 4.00902 2.02232C6.45911 0.166504 9.95411 0.166504 16.9441 0.166504H28.129C31.644 0.166504 33.4015 0.166504 34.4935 1.30494C35.3322 2.17929 35.5267 3.46292 35.5719 5.67157Z" fill="url(#paint0_linear_1564_3608)"/>
<path d="M1.70169 11.3905C0.166687 13.8954 0.166687 17.3052 0.166687 24.1248C0.166687 30.9445 0.166687 34.3543 1.70169 36.8592C2.5606 38.2608 3.73904 39.4393 5.14066 40.2982C7.64555 41.8332 11.0554 41.8332 17.875 41.8332H24.125C30.9447 41.8332 34.3545 41.8332 36.8594 40.2982C38.261 39.4393 39.4394 38.2608 40.2984 36.8592C41.3065 35.2141 41.6525 33.1787 41.7713 30.0434H28.576C24.575 30.0434 21.3316 26.8 21.3316 22.7991C21.3316 18.7982 24.575 15.5548 28.576 15.5548H41.5785C41.3697 13.8305 40.9897 12.5187 40.2984 11.3905C39.4394 9.98886 38.261 8.81042 36.8594 7.9515C36.4604 7.70699 36.0384 7.50143 35.5834 7.32861C33.1817 6.4165 29.8584 6.4165 24.125 6.4165H17.875C11.0554 6.4165 7.64555 6.4165 5.14066 7.9515C3.73904 8.81042 2.5606 9.98886 1.70169 11.3905Z" fill="url(#paint1_linear_1564_3608)"/>
<path fill-rule="evenodd" clip-rule="evenodd" d="M41.7873 18.6798H28.576C26.3009 18.6798 24.4566 20.5241 24.4566 22.7991C24.4566 25.0742 26.3009 26.9184 28.576 26.9184H41.8285C41.8334 26.0556 41.8334 25.127 41.8334 24.1248C41.8334 22.0056 41.8334 20.2156 41.7873 18.6798ZM28.576 21.2366C27.713 21.2366 27.0135 21.9362 27.0135 22.7991C27.0135 23.6621 27.713 24.3616 28.576 24.3616H34.2578C35.1207 24.3616 35.8203 23.6621 35.8203 22.7991C35.8203 21.9362 35.1207 21.2366 34.2578 21.2366H28.576Z" fill="url(#paint2_linear_1564_3608)"/>
<defs>
<linearGradient id="paint0_linear_1564_3608" x1="7.76218" y1="62.2325" x2="64.2194" y2="18.2699" gradientUnits="userSpaceOnUse">
<stop stop-color="#982DEC"/>
<stop offset="0.572917" stop-color="#DC8DF8"/>
<stop offset="0.895833" stop-color="#A9C4F3"/>
</linearGradient>
<linearGradient id="paint1_linear_1564_3608" x1="7.76218" y1="62.2325" x2="64.2194" y2="18.2699" gradientUnits="userSpaceOnUse">
<stop stop-color="#982DEC"/>
<stop offset="0.572917" stop-color="#DC8DF8"/>
<stop offset="0.895833" stop-color="#A9C4F3"/>
</linearGradient>
<linearGradient id="paint2_linear_1564_3608" x1="7.76218" y1="62.2325" x2="64.2194" y2="18.2699" gradientUnits="userSpaceOnUse">
<stop stop-color="#982DEC"/>
<stop offset="0.572917" stop-color="#DC8DF8"/>
<stop offset="0.895833" stop-color="#A9C4F3"/>
</linearGradient>
</defs>
</svg>
